<svg xmlns="http://www.w3.org/2000/svg" xmlns:xlink="http://www.w3.org/1999/xlink" version="1.1" x="0px" y="0px" width="175px" height="175px" viewBox="0 0 175 175" enable-background="new 0 0 175 175" xml:space="preserve"><style>.style0{fill:	#FFFFFF;}.style1{fill:	#A4D55D;}.style2{fill:	#3F5B58;}.style3{fill:	none;}</style><g><g><path d="M153.187 143.872c0.385-0.412 0.76-0.831 1.133-1.255c0.455-0.522 0.897-1.053 1.331-1.593 c0.354-0.44 0.699-0.882 1.038-1.334c0.416-0.559 0.815-1.126 1.206-1.703c0.317-0.47 0.632-0.938 0.934-1.42 c0.373-0.595 0.727-1.208 1.075-1.822c0.278-0.492 0.559-0.983 0.818-1.487c0.333-0.641 0.638-1.304 0.943-1.966 c0.235-0.51 0.476-1.017 0.693-1.54c0.29-0.694 0.546-1.412 0.803-2.126c0.189-0.525 0.391-1.044 0.565-1.581 c0.244-0.764 0.452-1.554 0.66-2.342c0.14-0.522 0.296-1.029 0.418-1.563c0.208-0.889 0.366-1.809 0.528-2.729 c0.079-0.461 0.186-0.907 0.253-1.376c0.208-1.405 0.369-2.838 0.467-4.311c0.07-0.972-1.441-0.964-1.502 0l-2.711-8.175 c2.503-11.533 2.165-23.718-1.499-34.996c-3.611-11.122-10.612-20.851-19.633-28.767l-2.568-7.753 c0.882 0.4 1.652-0.922 0.76-1.3C115.242 22.7 89.4 14.2 63.3 15.938c-11.802 0.809-23.212 4.57-32.736 11.6 C20.057 35.4 14.2 46.9 9.3 58.812c-9.421 22.915-12.786 50.886-1.533 73.758c0.736 1.5 1.5 2.9 2.4 4.3 c0.294 0.5 0.6 0.9 0.9 1.346c0.583 0.9 1.2 1.7 1.8 2.562c0.4 0.5 0.8 1 1.3 1.5 c0.583 0.7 1.2 1.4 1.8 2.05c0.478 0.5 1 1 1.5 1.456c0.595 0.6 1.2 1.2 1.8 1.7 c0.549 0.5 1.1 0.9 1.7 1.383c0.612 0.5 1.2 1 1.8 1.441c0.62 0.5 1.3 0.9 1.9 1.3 c0.62 0.4 1.2 0.8 1.9 1.204c0.687 0.4 1.4 0.8 2.1 1.18c0.615 0.3 1.2 0.7 1.9 1 c0.759 0.4 1.5 0.7 2.3 1.073c0.6 0.3 1.2 0.5 1.8 0.783c0.829 0.3 1.7 0.7 2.5 1 c0.577 0.2 1.2 0.4 1.7 0.604c0.904 0.3 1.8 0.6 2.7 0.836c0.536 0.2 1.1 0.3 1.6 0.4 c0.983 0.3 2 0.5 3 0.711c0.479 0.1 1 0.2 1.4 0.302c1.065 0.2 2.1 0.4 3.2 0.6 c0.416 0.1 0.8 0.1 1.2 0.187c1.151 0.2 2.3 0.3 3.5 0.434c0.336 0 0.7 0.1 1 0.1 c1.241 0.1 2.5 0.2 3.7 0.277c0.239 0 0.5 0 0.7 0.031c1.335 0.1 2.7 0.1 4 0.1 c0.13 0 0.3 0 0.4 0c1.435 0 2.87-0.018 4.297-0.073h0.001l0 0c0.019 0 0 0 0.1 0 c1.208 0.3 2.4 0.6 3.7 0.827c0.427 0.1 0.9 0.2 1.3 0.241c0.838 0.2 1.7 0.3 2.5 0.5 c0.518 0.1 1 0.2 1.6 0.229c0.78 0.1 1.6 0.2 2.4 0.33c0.56 0.1 1.1 0.1 1.7 0.2 c0.76 0.1 1.5 0.2 2.3 0.229c0.592 0.1 1.2 0.1 1.8 0.131c0.748 0.1 1.5 0.1 2.2 0.1 c0.609 0 1.2 0 1.8 0.067c0.748 0 1.5 0 2.2 0.053c0.615 0 1.2 0 1.8 0 c0.748-0.003 1.496-0.012 2.247-0.03c0.623-0.017 1.246-0.038 1.87-0.064c0.748-0.034 1.495-0.072 2.244-0.121 c0.62-0.038 1.238-0.081 1.859-0.131c0.753-0.06 1.507-0.131 2.26-0.206c0.61-0.064 1.224-0.128 1.834-0.2 c0.757-0.09 1.511-0.194 2.266-0.301c0.604-0.085 1.206-0.167 1.807-0.265c0.76-0.123 1.521-0.26 2.277-0.397 c0.586-0.107 1.169-0.211 1.752-0.33c0.772-0.155 1.539-0.33 2.305-0.505c0.559-0.127 1.121-0.248 1.676-0.383 c0.797-0.198 1.584-0.415 2.369-0.633c0.516-0.142 1.032-0.272 1.539-0.421c0.873-0.256 1.731-0.539 2.589-0.823 c0.415-0.134 0.831-0.26 1.239-0.398c2.525-0.875 4.982-1.859 7.361-2.963c0.381-0.177 0.748-0.374 1.126-0.556 c0.797-0.388 1.593-0.774 2.369-1.188c0.445-0.238 0.876-0.495 1.315-0.742c0.687-0.385 1.374-0.77 2.042-1.179 c0.458-0.281 0.901-0.579 1.353-0.867c0.623-0.403 1.249-0.806 1.853-1.23c0.455-0.317 0.892-0.649 1.331-0.977 c0.58-0.427 1.154-0.858 1.713-1.307c0.437-0.35 0.858-0.711 1.279-1.071c0.538-0.458 1.069-0.919 1.584-1.396 c0.412-0.38 0.815-0.772 1.212-1.163C152.225 144.9 152.7 144.4 153.2 143.872z" class="style0"/><g><g><path d="M28.486 133.577c0.556 2.2 2.4 3.7 2.4 6.103c0 2.032-1.847 6.093-3.694 7 c-1.298-2.954-0.739-7.02-0.739-10.348c-7.129 5.168-15.533 1.106-15.533-3.885c0-3.328 14.049-0.182 16.6 0.6" class="style1"/><path d="M152.903 142.823c5.922-2.593 0.375-9.062-1.111-12.018c-2.589 3.142-2.396 8.7 0.6 11.7" class="style1"/><path d="M152.536 144.668c2.033 2.8 6.3 8 10 8.319c3.511 0.2 7.394-2.056 8.133-4.251 c-3.697-1.665-7.767-2.219-11.647-3.514c-1.85-0.554-3.325-2.029-5.175-0.183" class="style1"/><path d="M161.591 134.872c2.961 0.2 7.397-0.183 9.616-2.404c2.22-2.221 2.03-5.363 3.142-7.947 c-9.98 0.923-12.199 6.098-12.016 9.2" class="style1"/><path d="M123.509 26.539c6.655 0.7 11.836-7.673 17.566-8.968c-4.069-3.882-7.58-4.53-11.463-1.939 c-2.22 1.475-6.845 7.579-6.472 10.7" class="style1"/><path d="M119.812 25.427c-0.183-2.59 1.667-4.619 1.48-7.212c-0.375-3.694-5.474-4.717-7.324-7.857 c-1.294 6.7 1.6 9 5.7 13" class="style1"/><g><g><path d="M138.899 32.73C115.242 22.7 89.4 14.2 63.3 15.938c-11.802 0.809-23.212 4.57-32.736 11.6 C20.057 35.4 14.2 46.9 9.3 58.812c-9.421 22.915-12.786 50.886-1.533 73.8 c12.056 24.5 40.2 31.4 65.4 29.557c27.012-1.934 53.372-15.658 67.937-38.834 c13.298-21.16 15.362-53.882-0.974-74.008c-15.833-19.493-41.949-29.413-66.612-29.793 c-23.637-0.36-41.759 11.531-55.514 30.03C8.633 62.1 3.8 77.5 6.7 93.124c2.648 14.6 11.9 27.2 22.8 36.8 c23.138 20.5 58.3 31.6 88.7 23.956c34.861-8.82 52.971-50.049 42.154-83.335 C145.444 24.7 73.3 2.3 36.9 34.746C-3.554 70.8 11.7 142.6 62.3 160.1 c37.714 13.1 100.4 2.1 103.749-46.412c0.07-0.972-1.441-0.964-1.502 0c-3.709 54.314-84.089 61.793-119.907 35.8 C18.416 130.5 9 93.6 19.3 63.648c5.245-15.158 16.553-29.109 30.914-36.396c12.892-6.552 28.141-7.338 42.218-5.265 c27.207 4 55.6 21.1 65.9 47.565c7.489 19.3 2.3 45.511-9.473 62.169c-20.656 29.155-62.525 26.621-91.746 13.9 c-28.746-12.54-57.121-40.91-48.106-74.866c5.37-20.203 23.733-40.346 43.505-46.799c26.378-8.609 58.9 0.9 79.3 18.8 c24.103 21.2 22.5 59.1 5.1 84.076c-18.5 26.487-53.263 36.813-84.192 33.4 c-15.339-1.697-29.766-8.609-39.188-21.013c-8.144-10.713-11.09-24.484-11.348-37.684 C1.682 73.6 13.2 37.9 39 24.019c30.15-16.225 70.133-2.323 99.1 10 C139.021 34.4 139.8 33.1 138.9 32.73L138.899 32.73z" class="style2"/></g><g><path d="M122.716 27.615c7.397 0.1 11.509-3.89 17.417-7.681c0.461-0.296 0.522-1.026 0-1.304 c-3.648-1.963-7.721-3.318-11.748-1.679c-3.709 1.505-5.547 5.535-6.631 9.115c-0.229 0.8 0.7 1.2 1.3 0.7 c3.059-2.799 7.144-4.433 10.875-6.135c0.885-0.403 0.116-1.702-0.763-1.303c-3.868 1.768-8.001 3.469-11.177 6.4 c0.418 0.2 0.8 0.5 1.3 0.733c1.047-3.463 2.683-6.887 6.231-8.328c3.282-1.334 7 0.2 9.9 1.8 c0-0.437 0-0.869 0-1.304c-5.639 3.616-10.135 7.736-17.258 7.614c-0.971-0.019-0.806 1.2 0.2 1.184L122.716 27.615z" class="style2"/></g><g><path d="M159.604 135.049c3.102 0.4 6.4 0.8 9.406-0.434c2.86-1.186 3.868-4.077 4.213-6.925 c0.055-0.444-0.385-0.716-0.754-0.756c-5.059-0.586-8.887 2.4-11.305 6.613c-0.488 0.8 0.8 1.6 1.3 0.8 c2.18-3.795 5.449-6.399 10.007-5.871c-0.25-0.25-0.504-0.504-0.754-0.752c-0.36 2.937-1.569 5.17-4.558 6 c-2.394 0.632-5.135 0.18-7.553-0.104C158.639 133.4 158.7 134.9 159.6 135.049L159.604 135.049z" class="style2"/></g><g><path d="M152.103 145.34c3.768-4.9 6.705-9.499 2.091-14.879c-0.327-0.385-0.94-0.234-1.185 0.2 c-2.226 3.566-2.94 7.306-0.739 11.053c0.492 0.8 1.8 0.1 1.304-0.762c-1.941-3.306-1.19-6.448 0.739-9.531 c-0.397 0.052-0.791 0.104-1.185 0.153c4.094 4.8 0.8 8.928-2.326 13.052C150.21 145.3 151.5 146.1 152.1 145.3 L152.103 145.34z" class="style2"/></g><g><path d="M152.814 145.685c6.109-2.195 12.025-3.058 15.3 3.694c0.15-0.369 0.299-0.739 0.449-1.108 c-2.586 0.667-5.162 1.627-7.833 1.887c-3.511 0.34-5.932-2.269-7.846-4.848c-0.287 0.371-0.568 0.74-0.852 1.1 c2.83 1.1 5.6 1.7 8.6 1.496c0.964-0.076 0.974-1.584 0-1.506c-2.922 0.23-5.553-0.362-8.249-1.444 c-0.598-0.236-1.615 0.081-1.236 0.594c1.822 2.4 4.5 5.7 7.7 6.037c3.425 0.4 6.805-1.03 10.06-1.867 c0.5-0.131 0.659-0.681 0.452-1.111c-3.59-7.354-10.206-6.835-17.023-4.384C151.504 144.6 151.9 146 152.8 145.7 L152.814 145.685z" class="style2"/></g><g><path d="M27.425 131.853c-2.685-0.934-6.797-1.243-9.612-1.414c-1.664-0.104-5.933-0.618-6.988 1.2 c-1.221 2.2 2.6 4.2 4.1 4.668c3.703 1.2 10 0.5 13.347-1.589c0.815-0.524 0.06-1.829-0.76-1.302 c-2.894 1.847-7.733 2.174-11.036 1.697c-1.304-0.191-6.356-2.499-3-3.127c3.775-0.71 10.4 0.2 14 1.4 C28.407 133.8 28.3 132.2 27.4 131.853L27.425 131.853z" class="style2"/></g><g><path d="M27.024 134.295c-1.505 3.141-2.251 6.444-1.939 9.937c0.055 0.6 0.8 1 1.3 0.5 c2.703-2.797 4.159-6.037 3.137-9.924c-0.253-0.94-1.708-0.54-1.456 0.4c0.89 3.361-0.421 6.054-2.745 8.5 c0.426 0.2 0.9 0.4 1.3 0.534c-0.289-3.222 0.342-6.268 1.732-9.18C28.743 134.2 27.4 133.4 27 134.3 L27.024 134.295z" class="style2"/></g><path d="M119.938 22.675c0.638-2.591 1.737-4.786 0.504-7.339c-1.114-2.314-4.234-3.147-5.7-5.198 c-0.327-0.454-0.992-0.518-1.304 0c-4.161 6.9 0.6 11.7 5.9 16.072c0.543 0.4 1.5 0 1.261-0.733 c-0.275-0.9-0.452-1.813-0.681-2.719C119.907 22.7 119.9 22.7 119.9 22.675z M114.238 11.8 c0.782 0.8 1.7 1.5 2.6 2.125c1.676 1.2 3 2.3 2.6 4.679c-0.144 0.995-0.525 1.981-0.825 3 c-0.198 0.629-0.208 1.607-0.119 1.984C114.876 20.4 111.9 16.8 114.2 11.847z" class="style2"/></g><g><g><path d="M70.207 105.512c-4.129 3.685-4.137 11.027-5.086 16.085c-0.734 3.905-1.694 7.962-4.237 11.1 c-3.871 4.804-8.362 1.045-9.134-2.485c-0.528-2.413 0.275-5.228 0.789-7.591c1.244-5.706 4.364-15.441-3.537-17.258 c-4.191-0.962-9.922 2.946-9.775 7.423c0.37 11.2 23.9 13.8 32 14.805c12.692 1.6 29.237-2.955 35.72-14.749 c0.271-0.492-2.054-0.296-2.42 0.375c-8.36 15.207-28.305 14.599-42.902 11.231c-5.999-1.383-12.495-3.254-17.34-7.202 c-2.125-1.735-3.031-4.057-2.259-6.695c1.629-5.564 8.432-4.705 9.6 0.586c0.493 2.219-0.145 4.776-0.451 7 c-0.563 4.1-3.896 10.965-1.162 14.895c2.139 3.1 7.1 3.4 10.3 1.678c4.138-2.273 5.592-6.522 6.678-10.891 c1.298-5.19 0.818-14.271 5.135-18.116C73.116 104.8 70.7 105.1 70.2 105.512L70.207 105.512z" class="style1"/></g></g><g><path d="M33.029 67.617c3.514 9.6 6.5 19.4 10.7 28.74c0.403 0.9 2.5 0.3 2.097-0.562 c-4.164-9.351-7.15-19.139-10.667-28.738C34.784 66.1 32.7 66.7 33 67.617L33.029 67.617z" class="style2"/></g><g><path d="M31.721 68.333c11.868-6.202 19.2 11.3 8.8 17.76c-1.212 0.7 0.6 1.3 1.4 0.8 c5.385-3.315 7.809-10.038 4.544-15.795c-3.344-5.895-9.834-6.833-15.568-3.839C29.563 67.9 30.7 68.9 31.7 68.3 L31.721 68.333z" class="style2"/></g><g><path d="M51.725 70.535c2.732 5 3.1 17.3 11.7 14.025c6.819-2.641 4.428-16.626 3.49-21.909 c-0.698 0.188-1.397 0.374-2.093 0.559c2.005 6.6 4.6 12.9 8.3 18.778c0.383 0.6 2.418-0.072 1.938-0.829 c-3.642-5.784-6.185-11.984-8.162-18.508c-0.23-0.758-2.233-0.22-2.093 0.559c1.03 5.8 2 13.016-0.586 18.5 c-2.745 5.929-6.553-1.047-7.516-3.66c-0.986-2.671-1.475-5.596-2.854-8.109C53.419 69.2 51.4 69.9 51.7 70.5 L51.725 70.535z" class="style2"/></g><g><path d="M69.725 58.4c4.118 6.5 5.4 14.3 9.3 20.9c0.281 0.5 2.233-0.02 2.091-0.564 c-1.792-6.924-7.319-18.919 3.172-21.443c1.236-0.299 1.029-1.032-0.198-0.734c-11.989 2.885-7.322 14.039-5.065 22.7 c0.696-0.189 1.396-0.374 2.091-0.564c-3.862-6.637-5.156-14.39-9.271-20.896C71.466 57.3 69.5 58.1 69.7 58.4 L69.725 58.4z" class="style2"/></g><g><path d="M84.049 65.994c7.531 0.9 14.522-4.975 16.717-11.922c1.869-5.925-5.833-8.69-9.832-5.121 c-4.473 3.998-1.516 11.8 2.2 15.139c6.262 5.7 14.434-0.03 19.056-4.817c0.907-0.938-1.126-1.18-1.731-0.549 c-4.18 4.326-10.465 8.951-15.948 3.975c-2.699-2.448-3.969-6.558-3.511-10.111c0.724-5.591 8.994-4.279 7.6 1.7 c-1.328 5.82-7.946 11.031-13.857 10.299C83.818 64.4 82.6 65.8 84 65.994L84.049 65.994z" class="style2"/></g><g><path d="M81.49 93.258c-5.828 2.671-6.313 7.044-2.964 12.123c1.762 2.7 4 5 5.9 7.6 c2.734 3.8 1.1 5.269-3.277 5.694c-1.206 0.114-1.582 1.771-0.159 1.63c5.639-0.543 9.034-2.935 5.349-8.275 c-3.427-4.949-13.197-13.156-3.895-17.421C83.74 94 82.6 92.8 81.5 93.258L81.49 93.258z" class="style2"/></g><g><path d="M84.62 97.44c2.745 5.6 4.1 15.9 12.7 11.458c5.72-2.946 4.752-13.877 2.96-18.772 c-0.275-0.745-2.101-0.169-2.093 0.562c0.065 5.8 5.8 19.9 12.7 11.793c0.589-0.691-1.52-0.537-1.951-0.035 c-4.464 5.242-8.642-9.435-8.675-12.32c-0.698 0.189-1.396 0.373-2.093 0.562c1.567 4.3 1.6 9.4 0.4 13.7 c-1.348 4.786-6.115 5.564-8.536 1.042c-1.453-2.712-2.002-5.822-3.358-8.58C86.366 96.2 84.3 96.8 84.6 97.4 L84.62 97.44z" class="style2"/></g><g><path d="M102.834 85.569c2.525 4.1 3.7 8.9 6.2 13.007c0.458 0.7 2.3 0.2 2.006-0.751 c-2.656-7.687-3.169-15.835 5.166-19.993c1.279-0.638 0.14-1.847-0.946-1.307c-9.037 4.509-9.317 13.161-6.316 21.9 c0.668-0.252 1.337-0.5 2.002-0.75c-2.525-4.129-3.685-8.881-6.213-13.01C104.228 83.8 102.2 84.6 102.8 85.6 L102.834 85.569z" class="style2"/></g><g><path d="M115.657 86.813c6.14 3.6 12.605-0.58 15.606-6.249c3.306-6.234-1.646-11.76-8.289-9.968 c-7.034 1.899-4.265 12.611-0.961 16.438c6.051 7 17.7 0.2 21.214-5.912c0.568-0.998-1.56-0.961-1.991-0.202 c-3.431 6.069-13.326 10.887-18.366 3.853c-2.241-3.126-3.157-8.676-0.751-11.913c2.152-2.888 6.808-0.575 7.9 1.9 c0.776 1.8 0 4.007-0.711 5.649c-2.024 4.535-7.26 8.029-11.998 5.282C116.524 85.2 114.7 86.2 115.7 86.8 L115.657 86.813z" class="style2"/></g></g><g><path d="M134.484 64.265c0.879 1.5 0.4 3.349-1.117 4.25c-1.505 0.888-3.398 0.429-4.277-1.058 c-0.858-1.458-0.351-3.335 1.154-4.224C131.765 62.3 133.6 62.8 134.5 64.265z M129.762 67.1 c0.69 1.2 2.1 1.6 3.3 0.89c1.154-0.684 1.453-2.112 0.772-3.267c-0.693-1.169-2.098-1.613-3.267-0.922 C129.389 64.5 129.1 65.9 129.8 67.057z M132.195 67.479l-0.61 0.357l-1.551-2.624c0.21-0.189 0.525-0.421 0.958-0.676 c0.498-0.294 0.769-0.345 1.029-0.348c0.208 0 0.4 0.2 0.6 0.424c0.171 0.3 0.1 0.647-0.183 0.931l0.018 0 c0.314-0.055 0.6 0.1 0.9 0.357c0.318 0.4 0.5 0.5 0.6 0.542l-0.662 0.389c-0.128-0.049-0.321-0.263-0.583-0.519 c-0.213-0.26-0.452-0.296-0.788-0.095l-0.293 0.169L132.195 67.479z M131.328 65.98l0.29-0.168 c0.336-0.202 0.541-0.472 0.379-0.747c-0.141-0.24-0.412-0.294-0.794-0.069c-0.159 0.093-0.266 0.179-0.32 0.232L131.328 65.98z " class="style2"/></g></g></g><rect x="0.3" width="174.3" height="175" class="style3"/></g></svg>